<?xml version="1.0" encoding="utf-8"?>
<!-- Generator: Adobe Illustrator 19.0.0, SVG Export Plug-In . SVG Version: 6.00 Build 0)  -->
<svg version="1.1" id="Layer_1" xmlns="http://www.w3.org/2000/svg" xmlns:xlink="http://www.w3.org/1999/xlink" x="0px" y="0px"
	 viewBox="-285 358.3 39.3 76.7" style="enable-background:new -285 358.3 39.3 76.7;" xml:space="preserve">
<style type="text/css">
	.st0{enable-background:new    ;}
	.st1{fill:#FFFFFF;}
</style>
<g class="st0">
	<path class="st1" d="M-283.8,429.9c0.1-0.1,1.3-1.2,1.4-1.3c0.1-0.1,0.3-0.1,0.5-0.1h1.4v0.8v0.1h-0.1h-1.5c-0.2,0-0.3,0-0.4,0.1
		s-0.2,0.2-0.2,0.4v4.1h-0.9h-0.1v-0.3L-283.8,429.9"/>
	<path class="st1" d="M-279.9,432.5v-3.9h0.9h0.1v0.1v3.9c0,0.2,0.1,0.3,0.2,0.5c0.1,0.1,0.3,0.2,0.5,0.2h1.6c0.2,0,0.4-0.1,0.5-0.2
		s0.2-0.3,0.2-0.5v-3.9v-0.1h0.1h0.9v3.9c0,0.4-0.2,0.8-0.5,1.1c-0.3,0.3-0.7,0.5-1.2,0.5h-1.6c-0.5,0-0.9-0.2-1.2-0.5
		S-279.9,432.9-279.9,432.5z"/>
	<path class="st1" d="M-273.9,432.5v-2.4c0-0.5,0.2-0.9,0.5-1.2c0.3-0.3,0.7-0.4,1.2-0.4h1.6c0.5,0,0.9,0.1,1.2,0.4
		c0.3,0.3,0.5,0.7,0.5,1.2v1.3c0,0.1,0,0.1,0,0.2c0,0,0,0.1-0.1,0.1c0,0-0.1,0.1-0.2,0.1h-3.2c-0.2,0-0.4-0.1-0.5-0.2v1
		c0,0.2,0.1,0.3,0.2,0.5c0.1,0.1,0.3,0.2,0.5,0.2h2.9h0.1v0.1v0.8h-3.1c-0.5,0-0.9-0.2-1.2-0.5S-273.9,432.9-273.9,432.5z
		 M-272.8,430.7c0,0.1,0,0.1,0.1,0.1h2.8h0.1v-0.1v-0.6c0-0.4-0.2-0.7-0.7-0.7h-1.6c-0.2,0-0.4,0.1-0.5,0.2s-0.2,0.3-0.2,0.5
		L-272.8,430.7L-272.8,430.7z"/>
	<path class="st1" d="M-268.4,428.5h1c0.1,0,0.1,0,0.1,0.1l1.6,3.9l1.6-3.9c0-0.1,0.1-0.1,0.2-0.1h1l-2.4,5.5c0,0.1-0.1,0.1-0.1,0.1
		h-0.5c-0.1,0-0.1,0-0.1-0.1L-268.4,428.5z"/>
	<path class="st1" d="M-262.3,434v-5.4h0.9h0.1c0,0,0,0,0,0.1v5.4h-0.9C-262.2,434.1-262.3,434.1-262.3,434L-262.3,434z"/>
	<path class="st1" d="M-260.4,432.5v-2.4c0-0.5,0.2-0.9,0.5-1.2c0.3-0.3,0.7-0.4,1.2-0.4h1.6c0.5,0,0.9,0.1,1.2,0.4s0.5,0.7,0.5,1.2
		v1.3c0,0.1,0,0.1,0,0.2c0,0,0,0.1-0.1,0.1c0,0-0.1,0.1-0.2,0.1h-3.2c-0.2,0-0.4-0.1-0.5-0.2v1c0,0.2,0.1,0.3,0.2,0.5
		c0.1,0.1,0.3,0.2,0.5,0.2h2.9h0.1v0.1v0.8h-3.1c-0.5,0-0.9-0.2-1.2-0.5C-260.2,433.3-260.4,432.9-260.4,432.5z M-259.3,430.7
		c0,0.1,0,0.1,0.1,0.1h2.8h0.1v-0.1v-0.6c0-0.4-0.2-0.7-0.7-0.7h-1.6c-0.2,0-0.4,0.1-0.5,0.2s-0.2,0.3-0.2,0.5L-259.3,430.7
		L-259.3,430.7z"/>
	<path class="st1" d="M-254.4,432.5v-3.9h0.9h0.1c0,0,0,0,0,0.1v3.9c0,0.2,0.1,0.3,0.2,0.5c0.1,0.1,0.3,0.2,0.5,0.2h1.5
		c-0.1-0.1-0.2-0.2-0.2-0.3v-4.3h0.9h0.1c0,0,0,0,0,0.1v4.4v0.1h0.1h1.8h0.1v-0.1l0,0v-4.4v-0.1h0.1h0.9v4.8c0,0.2-0.1,0.4-0.2,0.5
		c-0.1,0.1,0.2,0.2,0,0.2h-4.6c-0.5,0-1.4-0.2-1.8-0.5C-254.3,433.3-254.4,432.9-254.4,432.5z"/>
</g>
<path class="st1" d="M-257.3,378.6c5.1,0,7.7-4.1,7.7-8.1c0-1.5,0-2.9,0-3.9c0-3.7-1.9-7.7-8.6-7.7c-3.3,0-17,0-18.7,0
	c-3,0-5.2,2.1-5.2,5.4c0,1.8,0,30.6,0,30.6h5.4v-16h13.1l9,16h6.5C-248.1,394.9-252.9,385.6-257.3,378.6z M-276.8,374.1v-10.4
	c0,0,15.2,0,17.4,0c2.2,0,4.3,1.3,4.3,3.7c0,0.3,0,0.6,0,0.9c0,2.7,0,5.8-5.4,5.8C-266.5,374.1-276.8,374.1-276.8,374.1z"/>
<path class="st1" d="M-257.6,407.7c-4,0-6.9-1.7-9.5-3.1c-2-1.1-3.7-2.1-5.6-2.1c-2.7,0-4,0-7,3c-1.1,1.1-2.9,1.1-4.1,0.1
	c-1.2-1.1-1.2-2.8-0.1-3.9c4.4-4.4,7.2-4.7,11.1-4.7c3.4,0,6.1,1.5,8.5,2.9c2.2,1.3,4.2,2.4,6.6,2.4c3.9,0,5.9-3.5,6-3.7
	c0.7-1.3,2.5-1.9,3.9-1.2c1.4,0.7,2,2.3,1.3,3.7C-246.6,401.2-250.1,407.7-257.6,407.7z"/>
<path class="st1" d="M-257.6,417.1c-4,0-6.9-1.7-9.5-3.1c-2-1.1-3.7-2.1-5.6-2.1c-2.7,0-4,0-7,3c-1.1,1.1-2.9,1.1-4.1,0.1
	c-1.2-1.1-1.2-2.8-0.1-3.9c4.4-4.4,7.2-4.7,11.1-4.7c3.4,0,6.1,1.5,8.5,2.9c2.2,1.3,4.2,2.3,6.6,2.3c3.9,0,5.9-3.5,6-3.7
	c0.7-1.3,2.5-1.9,3.9-1.2c1.4,0.7,2,2.3,1.3,3.7C-246.6,410.7-250.1,417.1-257.6,417.1z"/>
<path class="st1" d="M-257.6,426.5c-4,0-6.9-1.6-9.5-3.1c-2-1.1-3.7-2.1-5.6-2.1c-2.7,0-4,0-7,3c-1.1,1.1-2.9,1.1-4.1,0.1
	c-1.2-1.1-1.2-2.8-0.1-3.9c4.4-4.3,7.2-4.7,11.1-4.7c3.4,0,6.1,1.5,8.5,2.9c2.2,1.2,4.2,2.3,6.6,2.3c3.9,0,5.9-3.5,6-3.7
	c0.7-1.4,2.5-1.9,3.9-1.2c1.4,0.7,2,2.3,1.3,3.7C-246.6,420.1-250.1,426.5-257.6,426.5z"/>
</svg>
